<?xml version="1.0" standalone="no"?><!DOCTYPE svg PUBLIC "-//W3C//DTD SVG 1.1//EN" "http://www.w3.org/Graphics/SVG/1.1/DTD/svg11.dtd"><svg class="icon" width="20px" height="20.00px" viewBox="0 0 1024 1024" version="1.1" xmlns="http://www.w3.org/2000/svg"><path fill="#495e6f" d="M512 256c155.370667 0 296.853333 99.626667 363.562667 255.957333H938.666667c-70.506667-193.493333-239.253333-320-426.666667-319.957333-187.562667 0-356.352 126.613333-426.666667 320h63.061334C214.912 355.712 356.48 256 512 255.957333V256zM148.394667 512H85.333333c70.464 193.493333 239.210667 320.042667 426.624 320C699.52 832 868.352 705.386667 938.666667 512h-63.146667c-95.466667 223.701333-335.637333 318.826667-536.426667 212.48-83.605333-44.309333-150.954667-119.338667-190.698666-212.48z m360.106666 174.016c95.210667 1.962667 174.037333-72.917333 176-167.232a169.173333 169.173333 0 0 0 0-6.784c-1.984-94.293333-80.789333-169.173333-176.021333-167.189333h-0.042667c-92.544 1.749333-167.189333 75.52-169.152 167.189333-1.792 94.293333 73.941333 172.202667 169.173334 173.994667h0.021333z m6.08-64.64c-59.541333 1.493333-109.056-45.098667-110.570666-104.064a105.770667 105.770667 0 0 1 0-5.312c1.557333-58.965333 51.093333-105.514667 110.634666-103.978667h0.021334c57.450667 1.365333 103.722667 47.104 105.237333 103.978667 1.429333 58.965333-45.653333 107.946667-105.216 109.354667h-0.106667z"  /></svg>